<?xml version="1.0" encoding="UTF-8"?>
<svg width="56px" height="56px" viewBox="0 0 56 56" version="1.1" xmlns="http://www.w3.org/2000/svg" xmlns:xlink="http://www.w3.org/1999/xlink">
    <title>Icon/Engrenagem</title>
    <g id="Icon/Engrenagem" stroke="none" stroke-width="1" fill="none" fill-rule="evenodd">
        <circle id="Oval" fill="#FFEEBD" cx="28.5" cy="27.5" r="26.5"></circle>
        <g id="noun_Gear_1329" transform="translate(9.000000, 8.000000)" fill="#CD9C02" fill-rule="nonzero">
            <path d="M37.3561336,23.0326907 C38.0842708,23.0326907 38.7617076,22.4422188 38.8607686,21.7207044 C38.8607686,21.7207044 39,20.7066841 39,19.50078 C39,18.2948759 38.8607686,17.2808556 38.8607686,17.2808556 C38.7613176,16.5589512 38.0842708,15.9688694 37.3561336,15.9688694 L33.5933759,15.9688694 C32.8648486,15.9688694 32.1082411,15.5043701 31.9124591,14.9369087 C31.7166772,14.3694474 31.4471845,12.548891 31.9623796,12.0340807 L34.6222062,9.37422748 C35.1370114,8.85902718 35.1767918,7.9799496 34.7103471,7.42028841 L31.5809558,4.2900858 C31.0213002,3.82324646 30.1426214,3.86302726 29.6270363,4.37822756 L26.9672097,7.03808076 C26.4524045,7.55328107 25.5940059,7.76076522 25.0608706,7.49945999 C24.5273453,7.23815476 23.0324603,6.13599272 23.0324603,5.40745815 L23.0324603,1.64466289 C23.0324603,0.916128323 22.4419944,0.239074781 21.7204872,0.139622792 C21.7204872,0.139622792 20.7064771,0 19.500585,0 C18.2946929,0 17.2806828,0.139622792 17.2806828,0.139622792 C16.5587856,0.238684774 15.9683197,0.916128323 15.9683197,1.64466289 L15.9683197,5.40745815 C15.9683197,6.13599272 15.504215,6.89221784 14.9363694,7.08839177 C14.3685237,7.28417568 12.5483755,7.55367107 12.0331803,7.03847077 L9.37335373,4.37861757 C8.85815858,3.86341727 7.97908979,3.82363647 7.4198242,4.2900858 L4.2900429,7.4198984 C3.82320823,7.97955959 3.86298863,8.85863717 4.37818378,9.37383748 L7.03762038,12.0336907 C7.55281553,12.548891 7.76068761,13.4069081 7.49899499,13.9400488 C7.23730237,14.4731895 6.13554136,15.9684794 5.40701407,15.9684794 L1.64464645,15.9684794 C0.916119161,15.9684794 0.239072391,16.5589512 0.139621396,17.2804656 C0.139621396,17.2804656 0,18.2944859 0,19.50039 C0,20.7066841 0.139621396,21.7203144 0.139621396,21.7203144 C0.238682387,22.4422188 0.916119161,23.0323006 1.64464645,23.0323006 L5.40740407,23.0323006 C6.13593136,23.0323006 6.89214892,23.4964099 7.08793088,24.0642613 C7.28371284,24.6317226 7.55320553,26.451889 7.03801038,26.9670893 L4.37857379,29.6265525 C3.86337863,30.1417528 3.82359824,31.0208304 4.2904329,31.5804916 L7.4198242,34.7106942 C7.97947979,35.1771435 8.85815858,35.1377528 9.37335373,34.6225525 L12.0331803,31.9626993 C12.5483755,31.447889 13.4063841,31.2400148 13.9399094,31.50132 C14.4734347,31.7626253 15.9683197,32.8647873 15.9683197,33.5933219 L15.9683197,37.3561171 C15.9683197,38.0842617 16.5587856,38.7617052 17.2806828,38.8607672 C17.2806828,38.8607672 18.2943029,39 19.500585,39 C20.7068671,39 21.7204872,38.8607672 21.7204872,38.8607672 C22.4423844,38.7613152 23.0324603,38.0842617 23.0324603,37.3561171 L23.0324603,33.5933219 C23.0324603,32.8647873 23.496565,32.1081722 24.0644106,31.9123882 C24.6322563,31.7166043 26.4524045,31.4474989 26.9675997,31.9623092 L29.6270363,34.6221624 C30.1422314,35.1369727 31.0213002,35.1767535 31.5809558,34.7103042 L34.7103471,31.5812716 C35.1767918,31.0216104 35.1374014,30.1429229 34.6218162,29.6273325 L31.9623796,26.9678694 C31.4471845,26.4526691 31.2393124,25.5946519 31.501005,25.0611212 C31.7623076,24.5275906 32.8644586,23.0326907 33.5929859,23.0326907 L37.3561336,23.0326907 Z M19.500195,26.6383128 C15.5580356,26.6383128 12.3623436,23.4429789 12.3623436,19.50039 C12.3623436,15.5585812 15.5580356,12.3624672 19.500195,12.3624672 C23.4423544,12.3624672 26.6380464,15.5581912 26.6380464,19.50039 C26.6380464,23.4425889 23.4423544,26.6383128 19.500195,26.6383128 Z" id="Shape"></path>
        </g>
    </g>
</svg>