<?xml version="1.0" encoding="UTF-8"?>
<svg width="12px" height="12px" viewBox="0 0 12 12" version="1.1" xmlns="http://www.w3.org/2000/svg" xmlns:xlink="http://www.w3.org/1999/xlink">
    <title>icone menus</title>
    <g id="icone-menus" stroke="none" stroke-width="1" fill="none" fill-rule="evenodd">
        <g id="noun-list-menu-364709" fill="#666666" fill-rule="nonzero">
            <path d="M3.66666667,0 L11,0 C11.5522619,0 12,0.552261905 12,1 C12,1.5522619 11.5522619,2 11,2 L3.66666667,2 C3.11440476,2 2.66666667,1.4477381 2.66666667,1 C2.66666667,0.447738095 3.11440476,0 3.66666667,0 Z" id="Path"></path>
            <path d="M3.66666667,3.33333333 L11,3.33333333 C11.5522619,3.33333333 12,3.88559524 12,4.33333333 C12,4.88559524 11.5522619,5.33333333 11,5.33333333 L3.66666667,5.33333333 C3.11440476,5.33333333 2.66666667,4.78107143 2.66666667,4.33333333 C2.66666667,3.78107143 3.11440476,3.33333333 3.66666667,3.33333333 Z" id="Path"></path>
            <path d="M3.66666667,6.66666667 L11,6.66666667 C11.5522619,6.66666667 12,7.21892857 12,7.66666667 C12,8.21892857 11.5522619,8.66666667 11,8.66666667 L3.66666667,8.66666667 C3.11440476,8.66666667 2.66666667,8.11440476 2.66666667,7.66666667 C2.66666667,7.11440476 3.11440476,6.66666667 3.66666667,6.66666667 Z" id="Path"></path>
            <path d="M3.66666667,10 L11,10 C11.5522619,10 12,10.5522619 12,11 C12,11.5522619 11.5522619,12 11,12 L3.66666667,12 C3.11440476,12 2.66666667,11.4477381 2.66666667,11 C2.66666667,10.4477381 3.11440476,10 3.66666667,10 Z" id="Path"></path>
            <polygon id="Path" points="0 0 2 0 2 2 0 2"></polygon>
            <polygon id="Path" points="0 3.33333333 2 3.33333333 2 5.33333333 0 5.33333333"></polygon>
            <polygon id="Path" points="0 6.66666667 2 6.66666667 2 8.66666667 0 8.66666667"></polygon>
            <polygon id="Path" points="0 10 2 10 2 12 0 12"></polygon>
        </g>
    </g>
</svg>